# Worm tail OBJ
# Front = -Y, Tail tip = +Y
v 0.0000 -8.0000 14.0000
v 28.2843 -8.0000 9.8995
v 20.0000 6.0000 9.8995
v 0.0000 11.7990 9.8995
v -20.0000 6.0000 9.8995
v -28.2843 -8.0000 9.8995
v -20.0000 -22.0000 9.8995
v -0.0000 -27.7990 9.8995
v 20.0000 -22.0000 9.8995
v 40.0000 -8.0000 0.0000
v 28.2843 11.7990 0.0000
v 0.0000 20.0000 0.0000
v -28.2843 11.7990 0.0000
v -40.0000 -8.0000 0.0000
v -28.2843 -27.7990 0.0000
v -0.0000 -36.0000 0.0000
v 28.2843 -27.7990 0.0000
v 28.2843 -8.0000 -9.8995
v 20.0000 6.0000 -9.8995
v 0.0000 11.7990 -9.8995
v -20.0000 6.0000 -9.8995
v -28.2843 -8.0000 -9.8995
v -20.0000 -22.0000 -9.8995
v -0.0000 -27.7990 -9.8995
v 20.0000 -22.0000 -9.8995
v 0.0000 -8.0000 -14.0000
v 0.0000 16.0000 11.0000
v 19.7990 16.0000 7.7782
v 14.0000 26.0000 7.7782
v 0.0000 30.1421 7.7782
v -14.0000 26.0000 7.7782
v -19.7990 16.0000 7.7782
v -14.0000 6.0000 7.7782
v -0.0000 1.8579 7.7782
v 14.0000 6.0000 7.7782
v 28.0000 16.0000 0.0000
v 19.7990 30.1421 0.0000
v 0.0000 36.0000 0.0000
v -19.7990 30.1421 0.0000
v -28.0000 16.0000 0.0000
v -19.7990 1.8579 0.0000
v -0.0000 -4.0000 0.0000
v 19.7990 1.8579 0.0000
v 19.7990 16.0000 -7.7782
v 14.0000 26.0000 -7.7782
v 0.0000 30.1421 -7.7782
v -14.0000 26.0000 -7.7782
v -19.7990 16.0000 -7.7782
v -14.0000 6.0000 -7.7782
v -0.0000 1.8579 -7.7782
v 14.0000 6.0000 -7.7782
v 0.0000 16.0000 -11.0000
v 0.0000 38.0000 8.0000
v 12.7279 38.0000 5.6569
v 9.0000 44.0000 5.6569
v 0.0000 46.4853 5.6569
v -9.0000 44.0000 5.6569
v -12.7279 38.0000 5.6569
v -9.0000 32.0000 5.6569
v -0.0000 29.5147 5.6569
v 9.0000 32.0000 5.6569
v 18.0000 38.0000 0.0000
v 12.7279 46.4853 0.0000
v 0.0000 50.0000 0.0000
v -12.7279 46.4853 0.0000
v -18.0000 38.0000 0.0000
v -12.7279 29.5147 0.0000
v -0.0000 26.0000 0.0000
v 12.7279 29.5147 0.0000
v 12.7279 38.0000 -5.6569
v 9.0000 44.0000 -5.6569
v 0.0000 46.4853 -5.6569
v -9.0000 44.0000 -5.6569
v -12.7279 38.0000 -5.6569
v -9.0000 32.0000 -5.6569
v -0.0000 29.5147 -5.6569
v 9.0000 32.0000 -5.6569
v 0.0000 38.0000 -8.0000
v 0.0000 58.0000 6.0000
v 7.0711 58.0000 4.2426
v 5.0000 62.0000 4.2426
v 0.0000 63.6569 4.2426
v -5.0000 62.0000 4.2426
v -7.0711 58.0000 4.2426
v -5.0000 54.0000 4.2426
v -0.0000 52.3431 4.2426
v 5.0000 54.0000 4.2426
v 10.0000 58.0000 0.0000
v 7.0711 63.6569 0.0000
v 0.0000 66.0000 0.0000
v -7.0711 63.6569 0.0000
v -10.0000 58.0000 0.0000
v -7.0711 52.3431 0.0000
v -0.0000 50.0000 0.0000
v 7.0711 52.3431 0.0000
v 7.0711 58.0000 -4.2426
v 5.0000 62.0000 -4.2426
v 0.0000 63.6569 -4.2426
v -5.0000 62.0000 -4.2426
v -7.0711 58.0000 -4.2426
v -5.0000 54.0000 -4.2426
v -0.0000 52.3431 -4.2426
v 5.0000 54.0000 -4.2426
v 0.0000 58.0000 -6.0000
v 0.0000 76.0000 5.0000
v 3.5355 76.0000 3.5355
v 2.5000 84.0000 3.5355
v 0.0000 87.3137 3.5355
v -2.5000 84.0000 3.5355
v -3.5355 76.0000 3.5355
v -2.5000 68.0000 3.5355
v -0.0000 64.6863 3.5355
v 2.5000 68.0000 3.5355
v 5.0000 76.0000 0.0000
v 3.5355 87.3137 0.0000
v 0.0000 92.0000 0.0000
v -3.5355 87.3137 0.0000
v -5.0000 76.0000 0.0000
v -3.5355 64.6863 0.0000
v -0.0000 60.0000 0.0000
v 3.5355 64.6863 0.0000
v 3.5355 76.0000 -3.5355
v 2.5000 84.0000 -3.5355
v 0.0000 87.3137 -3.5355
v -2.5000 84.0000 -3.5355
v -3.5355 76.0000 -3.5355
v -2.5000 68.0000 -3.5355
v -0.0000 64.6863 -3.5355
v 2.5000 68.0000 -3.5355
v 0.0000 76.0000 -5.0000
v -22.0000 8.0000 14.0000
v -14.9289 8.0000 11.9497
v -17.0000 12.5000 11.9497
v -22.0000 14.3640 11.9497
v -27.0000 12.5000 11.9497
v -29.0711 8.0000 11.9497
v -27.0000 3.5000 11.9497
v -22.0000 1.6360 11.9497
v -17.0000 3.5000 11.9497
v -12.0000 8.0000 7.0000
v -14.9289 14.3640 7.0000
v -22.0000 17.0000 7.0000
v -29.0711 14.3640 7.0000
v -32.0000 8.0000 7.0000
v -29.0711 1.6360 7.0000
v -22.0000 -1.0000 7.0000
v -14.9289 1.6360 7.0000
v -14.9289 8.0000 2.0503
v -17.0000 12.5000 2.0503
v -22.0000 14.3640 2.0503
v -27.0000 12.5000 2.0503
v -29.0711 8.0000 2.0503
v -27.0000 3.5000 2.0503
v -22.0000 1.6360 2.0503
v -17.0000 3.5000 2.0503
v -22.0000 8.0000 0.0000
v 22.0000 8.0000 14.0000
v 29.0711 8.0000 11.9497
v 27.0000 12.5000 11.9497
v 22.0000 14.3640 11.9497
v 17.0000 12.5000 11.9497
v 14.9289 8.0000 11.9497
v 17.0000 3.5000 11.9497
v 22.0000 1.6360 11.9497
v 27.0000 3.5000 11.9497
v 32.0000 8.0000 7.0000
v 29.0711 14.3640 7.0000
v 22.0000 17.0000 7.0000
v 14.9289 14.3640 7.0000
v 12.0000 8.0000 7.0000
v 14.9289 1.6360 7.0000
v 22.0000 -1.0000 7.0000
v 29.0711 1.6360 7.0000
v 29.0711 8.0000 2.0503
v 27.0000 12.5000 2.0503
v 22.0000 14.3640 2.0503
v 17.0000 12.5000 2.0503
v 14.9289 8.0000 2.0503
v 17.0000 3.5000 2.0503
v 22.0000 1.6360 2.0503
v 27.0000 3.5000 2.0503
v 22.0000 8.0000 0.0000
v 0.0000 18.0000 18.0000
v 7.0711 18.0000 16.2426
v 5.0000 30.0000 16.2426
v 0.0000 34.9706 16.2426
v -5.0000 30.0000 16.2426
v -7.0711 18.0000 16.2426
v -5.0000 6.0000 16.2426
v -0.0000 1.0294 16.2426
v 5.0000 6.0000 16.2426
v 10.0000 18.0000 12.0000
v 7.0711 34.9706 12.0000
v 0.0000 42.0000 12.0000
v -7.0711 34.9706 12.0000
v -10.0000 18.0000 12.0000
v -7.0711 1.0294 12.0000
v -0.0000 -6.0000 12.0000
v 7.0711 1.0294 12.0000
v 7.0711 18.0000 7.7574
v 5.0000 30.0000 7.7574
v 0.0000 34.9706 7.7574
v -5.0000 30.0000 7.7574
v -7.0711 18.0000 7.7574
v -5.0000 6.0000 7.7574
v -0.0000 1.0294 7.7574
v 5.0000 6.0000 7.7574
v 0.0000 18.0000 6.0000
v 0.0000 46.0000 15.0000
v 4.9497 46.0000 13.5355
v 3.5000 55.0000 13.5355
v 0.0000 58.7279 13.5355
v -3.5000 55.0000 13.5355
v -4.9497 46.0000 13.5355
v -3.5000 37.0000 13.5355
v -0.0000 33.2721 13.5355
v 3.5000 37.0000 13.5355
v 7.0000 46.0000 10.0000
v 4.9497 58.7279 10.0000
v 0.0000 64.0000 10.0000
v -4.9497 58.7279 10.0000
v -7.0000 46.0000 10.0000
v -4.9497 33.2721 10.0000
v -0.0000 28.0000 10.0000
v 4.9497 33.2721 10.0000
v 4.9497 46.0000 6.4645
v 3.5000 55.0000 6.4645
v 0.0000 58.7279 6.4645
v -3.5000 55.0000 6.4645
v -4.9497 46.0000 6.4645
v -3.5000 37.0000 6.4645
v -0.0000 33.2721 6.4645
v 3.5000 37.0000 6.4645
v 0.0000 46.0000 5.0000
f 1 2 3
f 1 3 4
f 1 4 5
f 1 5 6
f 1 6 7
f 1 7 8
f 1 8 9
f 1 9 2
f 2 10 11 3
f 3 11 12 4
f 4 12 13 5
f 5 13 14 6
f 6 14 15 7
f 7 15 16 8
f 8 16 17 9
f 9 17 10 2
f 10 18 19 11
f 11 19 20 12
f 12 20 21 13
f 13 21 22 14
f 14 22 23 15
f 15 23 24 16
f 16 24 25 17
f 17 25 18 10
f 18 26 19
f 19 26 20
f 20 26 21
f 21 26 22
f 22 26 23
f 23 26 24
f 24 26 25
f 25 26 18
f 27 28 29
f 27 29 30
f 27 30 31
f 27 31 32
f 27 32 33
f 27 33 34
f 27 34 35
f 27 35 28
f 28 36 37 29
f 29 37 38 30
f 30 38 39 31
f 31 39 40 32
f 32 40 41 33
f 33 41 42 34
f 34 42 43 35
f 35 43 36 28
f 36 44 45 37
f 37 45 46 38
f 38 46 47 39
f 39 47 48 40
f 40 48 49 41
f 41 49 50 42
f 42 50 51 43
f 43 51 44 36
f 44 52 45
f 45 52 46
f 46 52 47
f 47 52 48
f 48 52 49
f 49 52 50
f 50 52 51
f 51 52 44
f 53 54 55
f 53 55 56
f 53 56 57
f 53 57 58
f 53 58 59
f 53 59 60
f 53 60 61
f 53 61 54
f 54 62 63 55
f 55 63 64 56
f 56 64 65 57
f 57 65 66 58
f 58 66 67 59
f 59 67 68 60
f 60 68 69 61
f 61 69 62 54
f 62 70 71 63
f 63 71 72 64
f 64 72 73 65
f 65 73 74 66
f 66 74 75 67
f 67 75 76 68
f 68 76 77 69
f 69 77 70 62
f 70 78 71
f 71 78 72
f 72 78 73
f 73 78 74
f 74 78 75
f 75 78 76
f 76 78 77
f 77 78 70
f 79 80 81
f 79 81 82
f 79 82 83
f 79 83 84
f 79 84 85
f 79 85 86
f 79 86 87
f 79 87 80
f 80 88 89 81
f 81 89 90 82
f 82 90 91 83
f 83 91 92 84
f 84 92 93 85
f 85 93 94 86
f 86 94 95 87
f 87 95 88 80
f 88 96 97 89
f 89 97 98 90
f 90 98 99 91
f 91 99 100 92
f 92 100 101 93
f 93 101 102 94
f 94 102 103 95
f 95 103 96 88
f 96 104 97
f 97 104 98
f 98 104 99
f 99 104 100
f 100 104 101
f 101 104 102
f 102 104 103
f 103 104 96
f 105 106 107
f 105 107 108
f 105 108 109
f 105 109 110
f 105 110 111
f 105 111 112
f 105 112 113
f 105 113 106
f 106 114 115 107
f 107 115 116 108
f 108 116 117 109
f 109 117 118 110
f 110 118 119 111
f 111 119 120 112
f 112 120 121 113
f 113 121 114 106
f 114 122 123 115
f 115 123 124 116
f 116 124 125 117
f 117 125 126 118
f 118 126 127 119
f 119 127 128 120
f 120 128 129 121
f 121 129 122 114
f 122 130 123
f 123 130 124
f 124 130 125
f 125 130 126
f 126 130 127
f 127 130 128
f 128 130 129
f 129 130 122
f 131 132 133
f 131 133 134
f 131 134 135
f 131 135 136
f 131 136 137
f 131 137 138
f 131 138 139
f 131 139 132
f 132 140 141 133
f 133 141 142 134
f 134 142 143 135
f 135 143 144 136
f 136 144 145 137
f 137 145 146 138
f 138 146 147 139
f 139 147 140 132
f 140 148 149 141
f 141 149 150 142
f 142 150 151 143
f 143 151 152 144
f 144 152 153 145
f 145 153 154 146
f 146 154 155 147
f 147 155 148 140
f 148 156 149
f 149 156 150
f 150 156 151
f 151 156 152
f 152 156 153
f 153 156 154
f 154 156 155
f 155 156 148
f 157 158 159
f 157 159 160
f 157 160 161
f 157 161 162
f 157 162 163
f 157 163 164
f 157 164 165
f 157 165 158
f 158 166 167 159
f 159 167 168 160
f 160 168 169 161
f 161 169 170 162
f 162 170 171 163
f 163 171 172 164
f 164 172 173 165
f 165 173 166 158
f 166 174 175 167
f 167 175 176 168
f 168 176 177 169
f 169 177 178 170
f 170 178 179 171
f 171 179 180 172
f 172 180 181 173
f 173 181 174 166
f 174 182 175
f 175 182 176
f 176 182 177
f 177 182 178
f 178 182 179
f 179 182 180
f 180 182 181
f 181 182 174
f 183 184 185
f 183 185 186
f 183 186 187
f 183 187 188
f 183 188 189
f 183 189 190
f 183 190 191
f 183 191 184
f 184 192 193 185
f 185 193 194 186
f 186 194 195 187
f 187 195 196 188
f 188 196 197 189
f 189 197 198 190
f 190 198 199 191
f 191 199 192 184
f 192 200 201 193
f 193 201 202 194
f 194 202 203 195
f 195 203 204 196
f 196 204 205 197
f 197 205 206 198
f 198 206 207 199
f 199 207 200 192
f 200 208 201
f 201 208 202
f 202 208 203
f 203 208 204
f 204 208 205
f 205 208 206
f 206 208 207
f 207 208 200
f 209 210 211
f 209 211 212
f 209 212 213
f 209 213 214
f 209 214 215
f 209 215 216
f 209 216 217
f 209 217 210
f 210 218 219 211
f 211 219 220 212
f 212 220 221 213
f 213 221 222 214
f 214 222 223 215
f 215 223 224 216
f 216 224 225 217
f 217 225 218 210
f 218 226 227 219
f 219 227 228 220
f 220 228 229 221
f 221 229 230 222
f 222 230 231 223
f 223 231 232 224
f 224 232 233 225
f 225 233 226 218
f 226 234 227
f 227 234 228
f 228 234 229
f 229 234 230
f 230 234 231
f 231 234 232
f 232 234 233
f 233 234 226
